<svg width="783" height="467" viewBox="0 0 783 467" fill="none" xmlns="http://www.w3.org/2000/svg">
<g clip-path="url(#clip0)">
<path d="M126.473 16.9L80.5734 217H102.173L114.473 159.1H159.173L171.773 217H195.173L150.173 16.9H126.473ZM137.273 40.9L155.573 140.5H118.373L137.273 40.9ZM204.473 16.9V217H241.673C271.073 217 288.473 206.5 299.573 185.8C310.373 165.7 316.073 141.4 316.073 115.3C316.073 79.3 305.573 44.2 284.573 28.6C274.073 20.8 259.073 16.9 239.273 16.9H204.473ZM227.273 36.4H240.173C273.773 36.4 291.173 56.5 292.073 116.5C292.373 135.4 288.473 161.2 279.773 177.1C272.573 190.3 259.373 197.5 245.273 197.5H227.273V36.4ZM317.742 16.9L363.342 217H387.942L433.242 16.9H410.142L376.242 186.7L342.042 16.9H317.742ZM441.942 16.9V217H464.742V16.9H441.942ZM544.573 13.3C503.773 13.3 487.273 62.2 487.273 120.7C487.273 181.3 504.073 220.6 544.873 220.6C569.473 220.6 587.173 209.2 595.573 165.7L574.873 162.1C570.073 190.9 561.373 201.1 545.473 201.1C519.973 201.1 511.273 167.5 511.273 118.9C511.273 61.6 522.373 32.8 546.073 32.8C560.473 32.8 570.373 41.5 574.873 73.6L595.573 68.8C588.973 25 569.773 13.3 544.573 13.3ZM607.927 16.9V217H701.227V197.5H630.727V122.8H683.827V103.3H630.727V36.4H699.427V16.9H607.927ZM69.6352 243.3C28.8352 243.3 12.3352 292.2 12.3352 350.7C12.3352 411.3 29.1352 450.6 69.9352 450.6C94.5352 450.6 112.235 439.2 120.635 395.7L99.9352 392.1C95.1352 420.9 86.4352 431.1 70.5352 431.1C45.0352 431.1 36.3352 397.5 36.3352 348.9C36.3352 291.6 47.4352 262.8 71.1352 262.8C85.5352 262.8 95.4352 271.5 99.9352 303.6L120.635 298.8C114.035 255 94.8352 243.3 69.6352 243.3ZM185.189 243.3C146.489 243.3 126.089 280.2 126.089 348.3C126.089 418.8 145.889 450.6 185.189 450.6C206.789 450.6 221.489 441 231.389 419.7C241.289 398.4 244.589 372.3 244.589 345.6C244.589 276.3 223.889 243.3 185.189 243.3ZM149.789 343.8C149.789 287.7 161.789 262.8 184.889 262.8C209.789 262.8 220.589 288 220.589 347.1C220.589 406.2 209.189 431.1 185.189 431.1C159.989 431.1 149.789 402.9 149.789 343.8ZM266.958 246.9V447H352.158V427.5H289.758V246.9H266.958ZM356.604 246.9V392.7C356.604 432.6 368.904 450.6 406.704 450.6C439.704 450.6 458.304 434.7 458.304 389.7V246.9H436.404V389.1C436.404 418.8 428.904 431.1 407.004 431.1C385.404 431.1 379.404 419.7 379.404 389.7V246.9H356.604ZM484.212 246.9V447H504.612L502.812 275.4L544.812 447H561.912L604.212 276.3L602.412 447H624.612V246.9H594.912L554.412 409.5L514.512 246.9H484.212ZM653.923 246.9V447H674.323L673.123 275.7L741.523 447H763.723V246.9H743.323L744.523 403.5L681.223 246.9H653.923Z" fill="#CE55CC"/>
</g>
<defs>
<clipPath id="clip0">
<rect width="783" height="467" fill="white"/>
</clipPath>
</defs>
</svg>
