<svg width="783" height="464" viewBox="0 0 783 464" fill="none" xmlns="http://www.w3.org/2000/svg">
<g clip-path="url(#clip0)">
<path d="M108.737 16.9V217H131.537V16.9H108.737ZM160.968 16.9V217H181.368L180.168 45.7L248.568 217H270.768V16.9H250.368L251.568 173.5L188.268 16.9H160.968ZM342.21 13.3C313.71 13.3 292.11 34.6 292.11 67.3C292.11 94.6 302.31 104.2 329.91 119.2C346.41 128.2 362.31 133 369.21 143.8C372.81 149.5 374.61 156.1 374.61 165.4C374.61 187.3 363.21 201.1 343.71 201.1C321.21 201.1 309.51 182.8 306.51 161.2L285.21 166.6C290.31 201.4 311.91 220.6 343.41 220.6C372.81 220.6 397.71 200.2 397.71 163.9C397.71 130 381.21 118.9 345.21 101.8C320.91 90.4 314.01 82.3 314.01 66.1C314.01 46.9 323.91 32.8 341.61 32.8C358.11 32.8 368.91 43.3 374.01 67L394.71 61.9C387.51 29.2 368.91 13.3 342.21 13.3ZM413.964 16.9V217H436.764V16.9H413.964ZM466.194 16.9V217H503.394C532.794 217 550.194 206.5 561.294 185.8C572.094 165.7 577.794 141.4 577.794 115.3C577.794 79.3 567.294 44.2 546.294 28.6C535.794 20.8 520.794 16.9 500.994 16.9H466.194ZM488.994 36.4H501.894C535.494 36.4 552.894 56.5 553.794 116.5C554.094 135.4 550.194 161.2 541.494 177.1C534.294 190.3 521.094 197.5 506.994 197.5H488.994V36.4ZM600.163 16.9V217H693.463V197.5H622.963V122.8H676.063V103.3H622.963V36.4H691.663V16.9H600.163ZM112.995 243.3C72.1945 243.3 55.6945 292.2 55.6945 350.7C55.6945 411.3 72.4945 450.6 113.295 450.6C137.895 450.6 155.595 439.2 163.995 395.7L143.295 392.1C138.495 420.9 129.795 431.1 113.895 431.1C88.3945 431.1 79.6945 397.5 79.6945 348.9C79.6945 291.6 90.7945 262.8 114.495 262.8C128.895 262.8 138.795 271.5 143.295 303.6L163.995 298.8C157.395 255 138.195 243.3 112.995 243.3ZM176.348 246.9V447H199.148V351.3H258.248V447H281.048V246.9H258.248V331.8H199.148V246.9H176.348ZM335.817 246.9L289.917 447H311.517L323.817 389.1H368.517L381.117 447H404.517L359.517 246.9H335.817ZM346.617 270.9L364.917 370.5H327.717L346.617 270.9ZM413.817 246.9V447H434.217L433.017 275.7L501.417 447H523.617V246.9H503.217L504.417 403.5L441.117 246.9H413.817ZM553.059 246.9V447H646.359V427.5H575.859V352.8H628.959V333.3H575.859V266.4H644.559V246.9H553.059ZM656.559 246.9V447H741.759V427.5H679.359V246.9H656.559Z" fill="#D9A7C2"/>
</g>
<defs>
<clipPath id="clip0">
<rect width="783" height="464" fill="white"/>
</clipPath>
</defs>
</svg>
