<svg width="1289" height="464" viewBox="0 0 1289 464" fill="none" xmlns="http://www.w3.org/2000/svg">
<g clip-path="url(#clip0)">
<path d="M315.888 16.9V217H336.287L334.488 45.4L376.488 217H393.588L435.888 46.3L434.088 217H456.288V16.9H426.588L386.088 179.5L346.188 16.9H315.888ZM485.598 16.9V217H508.398V16.9H485.598ZM537.829 16.9V217H575.029C604.429 217 621.829 206.5 632.929 185.8C643.729 165.7 649.429 141.4 649.429 115.3C649.429 79.3 638.929 44.2 617.929 28.6C607.429 20.8 592.429 16.9 572.629 16.9H537.829ZM560.629 36.4H573.529C607.129 36.4 624.529 56.5 625.429 116.5C625.729 135.4 621.829 161.2 613.129 177.1C605.929 190.3 592.729 197.5 578.629 197.5H560.629V36.4ZM671.798 16.9V217H708.998C738.398 217 755.798 206.5 766.898 185.8C777.698 165.7 783.398 141.4 783.398 115.3C783.398 79.3 772.898 44.2 751.898 28.6C741.398 20.8 726.398 16.9 706.598 16.9H671.798ZM694.598 36.4H707.498C741.098 36.4 758.498 56.5 759.398 116.5C759.698 135.4 755.798 161.2 747.098 177.1C739.898 190.3 726.698 197.5 712.598 197.5H694.598V36.4ZM805.766 16.9V217H890.966V197.5H828.566V16.9H805.766ZM899.013 16.9V217H992.313V197.5H921.813V122.8H974.913V103.3H921.813V36.4H990.513V16.9H899.013ZM34.6199 246.9V447H55.0199L53.2199 275.4L95.2199 447H112.32L154.62 276.3L152.82 447H175.02V246.9H145.32L104.82 409.5L64.9199 246.9H34.6199ZM229.831 246.9L183.931 447H205.531L217.831 389.1H262.531L275.131 447H298.531L253.531 246.9H229.831ZM240.631 270.9L258.931 370.5H221.731L240.631 270.9ZM307.831 246.9V447H328.231L327.031 275.7L395.431 447H417.631V246.9H397.231L398.431 403.5L335.131 246.9H307.831ZM472.573 246.9L426.673 447H448.273L460.573 389.1H505.273L517.873 447H541.273L496.273 246.9H472.573ZM483.373 270.9L501.673 370.5H464.473L483.373 270.9ZM606.073 243.3C571.573 243.6 543.673 268.2 543.673 346.8C543.673 420 561.373 450.6 600.973 450.6C617.473 450.6 630.973 444.9 640.273 424.5L644.473 449.7H658.873V347.7H605.173V367.2H638.173V379.2C638.173 420.9 619.273 432.6 603.973 432.6C580.873 432.6 567.673 410.4 567.673 351.6C567.673 288 578.773 262.8 604.873 262.8C620.773 262.8 631.273 271.5 637.273 302.7L656.773 295.8C650.473 258.3 633.673 243 606.073 243.3ZM679.561 246.9V447H772.861V427.5H702.361V352.8H755.461V333.3H702.361V266.4H771.061V246.9H679.561ZM783.061 246.9V447H803.461L801.661 275.4L843.661 447H860.761L903.061 276.3L901.261 447H923.461V246.9H893.761L853.261 409.5L813.361 246.9H783.061ZM952.772 246.9V447H1046.07V427.5H975.572V352.8H1028.67V333.3H975.572V266.4H1044.27V246.9H952.772ZM1056.27 246.9V447H1076.67L1075.47 275.7L1143.87 447H1166.07V246.9H1145.67L1146.87 403.5L1083.57 246.9H1056.27ZM1174.81 246.9V266.4H1213.51V447H1236.31V266.4H1275.01V246.9H1174.81Z" fill="#ABC696"/>
</g>
<defs>
<clipPath id="clip0">
<rect width="1289" height="464" fill="white"/>
</clipPath>
</defs>
</svg>
